<svg xmlns="http://www.w3.org/2000/svg" viewBox="0 0 64 64" fill="none">
  <defs>
    <linearGradient id="aiGrad" x1="0%" y1="0%" x2="100%" y2="100%">
      <stop offset="0%" style="stop-color:#3D5A80"/>
      <stop offset="100%" style="stop-color:#5DB7C2"/>
    </linearGradient>
  </defs>
  <!-- Brain outline -->
  <path d="M32 8c-8 0-14 6-14 14 0 3 1 5.5 2.5 7.5-1.5 2-2.5 4.5-2.5 7.5 0 8 6 14 14 14s14-6 14-14c0-3-1-5.5-2.5-7.5 1.5-2 2.5-4.5 2.5-7.5 0-8-6-14-14-14z" stroke="url(#aiGrad)" stroke-width="3" stroke-linecap="round" stroke-linejoin="round"/>
  <!-- Neural connections -->
  <circle cx="26" cy="20" r="3" stroke="url(#aiGrad)" stroke-width="2"/>
  <circle cx="38" cy="20" r="3" stroke="url(#aiGrad)" stroke-width="2"/>
  <circle cx="32" cy="32" r="3" stroke="url(#aiGrad)" stroke-width="2"/>
  <circle cx="26" cy="44" r="3" stroke="url(#aiGrad)" stroke-width="2"/>
  <circle cx="38" cy="44" r="3" stroke="url(#aiGrad)" stroke-width="2"/>
  <!-- Connection lines -->
  <path d="M28 22l4 8M36 22l-4 8M28 42l4-8M36 42l-4-8" stroke="url(#aiGrad)" stroke-width="2" stroke-linecap="round"/>
</svg>
